<svg xmlns="http://www.w3.org/2000/svg" width="1200" height="663" viewBox="0 0 1200 663">
<rect width="100%" height="100%" fill="white"/>
<style>text{font-family:ui-monospace,monospace;font-size:13px}.axis{stroke:#57606a;stroke-width:1}.grid{stroke:#d8dee4;stroke-width:1}</style>
<text x="65" y="30" font-size="20">Major step timing: conclusion job (main, using samples)</text>
<text x="65" y="52">Steps with a sustained cost, recent slowdown, or recent regression</text>
<line class="grid" x1="65" y1="465.0" x2="1135" y2="465.0"/>
<text x="8" y="470.0">0s</text>
<line class="grid" x1="65" y1="387.0" x2="1135" y2="387.0"/>
<text x="8" y="392.0">22s</text>
<line class="grid" x1="65" y1="309.0" x2="1135" y2="309.0"/>
<text x="8" y="314.0">43s</text>
<line class="grid" x1="65" y1="231.0" x2="1135" y2="231.0"/>
<text x="8" y="236.0">65s</text>
<line class="grid" x1="65" y1="153.0" x2="1135" y2="153.0"/>
<text x="8" y="158.0">86s</text>
<line class="grid" x1="65" y1="75.0" x2="1135" y2="75.0"/>
<text x="8" y="80.0">108s</text>
<line class="grid" x1="65.0" y1="75" x2="65.0" y2="465"/>
<line class="grid" x1="198.8" y1="75" x2="198.8" y2="465"/>
<line class="grid" x1="332.5" y1="75" x2="332.5" y2="465"/>
<line class="grid" x1="466.2" y1="75" x2="466.2" y2="465"/>
<line class="grid" x1="600.0" y1="75" x2="600.0" y2="465"/>
<line class="grid" x1="733.8" y1="75" x2="733.8" y2="465"/>
<line class="grid" x1="867.5" y1="75" x2="867.5" y2="465"/>
<line class="grid" x1="1001.2" y1="75" x2="1001.2" y2="465"/>
<line class="grid" x1="1135.0" y1="75" x2="1135.0" y2="465"/>
<polyline points="65.0,396.3 66.4,403.5 69.1,331.1 69.9,399.9 69.9,403.5 73.9,389.0 82.0,399.9 87.5,389.0 119.6,367.3 120.2,392.6 126.6,399.9 139.4,389.0 152.7,374.6 165.4,211.8 178.0,399.9 190.6,363.7 203.9,331.1 217.5,378.2 231.0,139.4 242.3,363.7 257.1,349.2 270.3,403.5 283.4,345.6 295.8,378.2 322.1,399.9 326.4,367.3 335.9,410.7 348.9,392.6 358.0,399.9 374.7,378.2 386.9,410.7 400.8,414.4 414.5,403.5 424.4,410.7 440.1,403.5 446.7,403.5 466.8,414.4 480.2,385.4 493.1,414.4 498.8,410.7 516.9,403.5 532.6,385.4 545.6,403.5 558.6,414.4 568.0,403.5 576.6,367.3 577.0,378.2 584.8,338.4 594.9,287.7 608.3,356.5 620.1,342.0 637.5,370.9 649.2,334.8 663.9,367.3 677.0,370.9 687.7,378.2 690.0,352.8 925.6,385.4 938.9,410.7 952.1,367.3 962.6,414.4 978.9,331.1 992.2,331.1 1003.9,349.2 1017.8,407.1 1044.0,396.3 1082.8,313.1 1096.4,367.3 1122.4,389.0 1135.0,110.5" fill="none" stroke="#0969da" stroke-width="2"><title>Set up job</title></polyline>
<line x1="594.9" y1="287.7" x2="576.9" y2="265.7" stroke="#0969da" stroke-width="1"/>
<circle cx="576.9" cy="265.7" r="11" fill="white" stroke="#0969da" stroke-width="2"><title>R1: Set up job, samples, 49.0s</title></circle>
<text x="576.9" y="269.7" fill="#0969da" font-size="10" font-weight="bold" text-anchor="middle">R1</text>
<line x1="1082.8" y1="313.1" x2="1100.8" y2="291.1" stroke="#0969da" stroke-width="1"/>
<circle cx="1100.8" cy="291.1" r="11" fill="white" stroke="#0969da" stroke-width="2"><title>R2: Set up job, samples, 42.0s</title></circle>
<text x="1100.8" y="295.1" fill="#0969da" font-size="10" font-weight="bold" text-anchor="middle">R2</text>
<line x1="1135.0" y1="110.5" x2="1117.0" y2="132.5" stroke="#0969da" stroke-width="1"/>
<circle cx="1117.0" cy="132.5" r="11" fill="white" stroke="#0969da" stroke-width="2"><title>R3: Set up job, samples, 98.0s</title></circle>
<text x="1117.0" y="136.5" fill="#0969da" font-size="10" font-weight="bold" text-anchor="middle">R3</text>
<line x1="65" y1="521" x2="100" y2="521" stroke="#0969da" stroke-width="3"/>
<text x="110" y="525">Set up job</text>
<text x="65.0" y="490" text-anchor="start">2026-06-18</text>
<text x="198.8" y="490" text-anchor="middle">2026-06-28</text>
<text x="332.5" y="490" text-anchor="middle">2026-07-08</text>
<text x="466.2" y="490" text-anchor="middle">2026-07-19</text>
<text x="600.0" y="490" text-anchor="middle">2026-07-29</text>
<text x="733.8" y="490" text-anchor="middle">2026-08-08</text>
<text x="867.5" y="490" text-anchor="middle">2026-08-18</text>
<text x="1001.2" y="490" text-anchor="middle">2026-08-28</text>
<text x="1135.0" y="490" text-anchor="end">2026-09-08</text>
<line class="axis" x1="65" y1="465" x2="1135" y2="465"/>
<text x="65" y="565" font-size="16" font-weight="bold">Regression episodes</text>
<text x="65" y="593" fill="#0969da" font-weight="bold">R1</text>
<text x="99" y="593">2026-07-27 to 2026-07-29  Set up job / samples  +188%</text>
<text x="65" y="615" fill="#0969da" font-weight="bold">R2</text>
<text x="99" y="615">2026-09-04  Set up job / samples  +71%</text>
<text x="65" y="637" fill="#0969da" font-weight="bold">R3</text>
<text x="99" y="637">2026-09-08  Set up job / samples  +263%</text>
</svg>